<mxfile host="app.diagrams.net" modified="2024-02-02T20:50:23.425Z" agent="Mozilla/5.0 (Macintosh; Intel Mac OS X 10_15_7) AppleWebKit/537.36 (KHTML, like Gecko) Chrome/120.0.0.0 Safari/537.36" etag="qQBpok0WdZF6eaEkcMeN" version="23.1.1" type="github">
  <diagram id="C5RBs43oDa-KdzZeNtuy" name="Page-1">
    <mxGraphModel dx="1621" dy="1675" grid="1" gridSize="10" guides="1" tooltips="1" connect="1" arrows="1" fold="1" page="1" pageScale="1" pageWidth="827" pageHeight="1169" math="0" shadow="0">
      <root>
        <mxCell id="WIyWlLk6GJQsqaUBKTNV-0" />
        <mxCell id="WIyWlLk6GJQsqaUBKTNV-1" parent="WIyWlLk6GJQsqaUBKTNV-0" />
        <mxCell id="WIyWlLk6GJQsqaUBKTNV-2" value="" style="rounded=0;html=1;jettySize=auto;orthogonalLoop=1;fontSize=11;endArrow=block;endFill=0;endSize=8;strokeWidth=1;shadow=0;labelBackgroundColor=none;edgeStyle=orthogonalEdgeStyle;entryX=0.5;entryY=0;entryDx=0;entryDy=0;" parent="WIyWlLk6GJQsqaUBKTNV-1" source="WIyWlLk6GJQsqaUBKTNV-3" target="WxUwz7fWL2Glaz_NCDGq-0" edge="1">
          <mxGeometry relative="1" as="geometry">
            <Array as="points" />
          </mxGeometry>
        </mxCell>
        <mxCell id="WIyWlLk6GJQsqaUBKTNV-3" value="User query:&lt;br&gt;how can I change my privacy settings?" style="rounded=1;whiteSpace=wrap;html=1;fontSize=12;glass=0;strokeWidth=1;shadow=0;" parent="WIyWlLk6GJQsqaUBKTNV-1" vertex="1">
          <mxGeometry x="600" y="-200" width="150" height="90" as="geometry" />
        </mxCell>
        <mxCell id="WxUwz7fWL2Glaz_NCDGq-5" style="edgeStyle=orthogonalEdgeStyle;rounded=0;orthogonalLoop=1;jettySize=auto;html=1;" edge="1" parent="WIyWlLk6GJQsqaUBKTNV-1" source="WxUwz7fWL2Glaz_NCDGq-0" target="WxUwz7fWL2Glaz_NCDGq-1">
          <mxGeometry relative="1" as="geometry" />
        </mxCell>
        <mxCell id="WxUwz7fWL2Glaz_NCDGq-0" value="short OSS LLM analysis converts query into something readable by db" style="rounded=1;whiteSpace=wrap;html=1;absoluteArcSize=1;arcSize=0;strokeWidth=2;" vertex="1" parent="WIyWlLk6GJQsqaUBKTNV-1">
          <mxGeometry x="450" y="-70" width="110" height="90" as="geometry" />
        </mxCell>
        <mxCell id="WxUwz7fWL2Glaz_NCDGq-12" style="edgeStyle=orthogonalEdgeStyle;rounded=0;orthogonalLoop=1;jettySize=auto;html=1;" edge="1" parent="WIyWlLk6GJQsqaUBKTNV-1" source="WxUwz7fWL2Glaz_NCDGq-1" target="WxUwz7fWL2Glaz_NCDGq-11">
          <mxGeometry relative="1" as="geometry" />
        </mxCell>
        <mxCell id="WxUwz7fWL2Glaz_NCDGq-1" value="App&lt;br&gt;Db" style="strokeWidth=2;html=1;shape=mxgraph.flowchart.database;whiteSpace=wrap;" vertex="1" parent="WIyWlLk6GJQsqaUBKTNV-1">
          <mxGeometry x="290" y="125" width="60" height="100" as="geometry" />
        </mxCell>
        <mxCell id="WxUwz7fWL2Glaz_NCDGq-2" value="App Db contains the full&lt;br&gt;functionality of the app&lt;br&gt;and all of its components.&lt;br&gt;can be called by a search" style="text;strokeColor=none;fillColor=none;html=1;fontSize=24;fontStyle=1;verticalAlign=middle;align=center;" vertex="1" parent="WIyWlLk6GJQsqaUBKTNV-1">
          <mxGeometry x="-10" y="90" width="290" height="170" as="geometry" />
        </mxCell>
        <mxCell id="WxUwz7fWL2Glaz_NCDGq-15" style="edgeStyle=orthogonalEdgeStyle;rounded=0;orthogonalLoop=1;jettySize=auto;html=1;entryX=0;entryY=1;entryDx=0;entryDy=0;curved=1;" edge="1" parent="WIyWlLk6GJQsqaUBKTNV-1" source="WxUwz7fWL2Glaz_NCDGq-6" target="WxUwz7fWL2Glaz_NCDGq-10">
          <mxGeometry relative="1" as="geometry" />
        </mxCell>
        <mxCell id="WxUwz7fWL2Glaz_NCDGq-20" style="edgeStyle=orthogonalEdgeStyle;rounded=0;orthogonalLoop=1;jettySize=auto;html=1;entryX=0;entryY=0.5;entryDx=0;entryDy=0;" edge="1" parent="WIyWlLk6GJQsqaUBKTNV-1" source="WxUwz7fWL2Glaz_NCDGq-6" target="WxUwz7fWL2Glaz_NCDGq-19">
          <mxGeometry relative="1" as="geometry">
            <mxPoint x="560" y="410" as="sourcePoint" />
            <Array as="points">
              <mxPoint x="570" y="420" />
              <mxPoint x="640" y="420" />
              <mxPoint x="640" y="480" />
            </Array>
          </mxGeometry>
        </mxCell>
        <mxCell id="WxUwz7fWL2Glaz_NCDGq-6" value="User is&lt;br&gt;presented&lt;br&gt;with &quot; does this&amp;nbsp;&lt;br&gt;look correct? &quot;" style="strokeWidth=2;html=1;shape=mxgraph.flowchart.decision;whiteSpace=wrap;" vertex="1" parent="WIyWlLk6GJQsqaUBKTNV-1">
          <mxGeometry x="490" y="250" width="150" height="150" as="geometry" />
        </mxCell>
        <mxCell id="WxUwz7fWL2Glaz_NCDGq-8" style="edgeStyle=orthogonalEdgeStyle;rounded=0;orthogonalLoop=1;jettySize=auto;html=1;entryX=0.5;entryY=1;entryDx=0;entryDy=0;entryPerimeter=0;" edge="1" parent="WIyWlLk6GJQsqaUBKTNV-1" source="WxUwz7fWL2Glaz_NCDGq-6" target="WxUwz7fWL2Glaz_NCDGq-1">
          <mxGeometry relative="1" as="geometry" />
        </mxCell>
        <mxCell id="WxUwz7fWL2Glaz_NCDGq-10" value="offscreen sends message to db&lt;br&gt;with query and result" style="rounded=1;whiteSpace=wrap;html=1;absoluteArcSize=1;arcSize=0;strokeWidth=2;" vertex="1" parent="WIyWlLk6GJQsqaUBKTNV-1">
          <mxGeometry x="770" y="-20" width="120" height="70" as="geometry" />
        </mxCell>
        <mxCell id="WxUwz7fWL2Glaz_NCDGq-11" value="graph path- eg.&lt;br&gt;/homepage/settings/privacysection&lt;br&gt;is created and presented to user either as an interactive tutorial or a simple text instruction" style="rounded=1;whiteSpace=wrap;html=1;absoluteArcSize=1;arcSize=14;strokeWidth=2;" vertex="1" parent="WIyWlLk6GJQsqaUBKTNV-1">
          <mxGeometry x="420" y="145" width="230" height="80" as="geometry" />
        </mxCell>
        <mxCell id="WxUwz7fWL2Glaz_NCDGq-13" style="edgeStyle=orthogonalEdgeStyle;rounded=0;orthogonalLoop=1;jettySize=auto;html=1;entryX=0.5;entryY=0;entryDx=0;entryDy=0;entryPerimeter=0;" edge="1" parent="WIyWlLk6GJQsqaUBKTNV-1" source="WxUwz7fWL2Glaz_NCDGq-11" target="WxUwz7fWL2Glaz_NCDGq-6">
          <mxGeometry relative="1" as="geometry" />
        </mxCell>
        <mxCell id="WxUwz7fWL2Glaz_NCDGq-16" value="Send all results to the database, with both true and false results" style="text;html=1;strokeColor=none;fillColor=none;align=center;verticalAlign=middle;whiteSpace=wrap;rounded=0;" vertex="1" parent="WIyWlLk6GJQsqaUBKTNV-1">
          <mxGeometry x="770" y="170" width="115" height="110" as="geometry" />
        </mxCell>
        <mxCell id="WxUwz7fWL2Glaz_NCDGq-17" style="edgeStyle=orthogonalEdgeStyle;rounded=0;orthogonalLoop=1;jettySize=auto;html=1;entryX=0.4;entryY=-0.057;entryDx=0;entryDy=0;entryPerimeter=0;" edge="1" parent="WIyWlLk6GJQsqaUBKTNV-1" source="WIyWlLk6GJQsqaUBKTNV-3" target="WxUwz7fWL2Glaz_NCDGq-10">
          <mxGeometry relative="1" as="geometry" />
        </mxCell>
        <mxCell id="WxUwz7fWL2Glaz_NCDGq-19" value="&quot;interactive or text description of how to get there?" style="rhombus;whiteSpace=wrap;html=1;" vertex="1" parent="WIyWlLk6GJQsqaUBKTNV-1">
          <mxGeometry x="660" y="410" width="140" height="140" as="geometry" />
        </mxCell>
        <mxCell id="WxUwz7fWL2Glaz_NCDGq-21" value="Instrucitonal Text Appears&lt;br&gt;along with rating" style="strokeWidth=2;html=1;shape=mxgraph.flowchart.display;whiteSpace=wrap;" vertex="1" parent="WIyWlLk6GJQsqaUBKTNV-1">
          <mxGeometry x="860" y="435" width="155" height="90" as="geometry" />
        </mxCell>
        <mxCell id="WxUwz7fWL2Glaz_NCDGq-22" style="edgeStyle=orthogonalEdgeStyle;rounded=0;orthogonalLoop=1;jettySize=auto;html=1;entryX=0;entryY=0.5;entryDx=0;entryDy=0;entryPerimeter=0;" edge="1" parent="WIyWlLk6GJQsqaUBKTNV-1" source="WxUwz7fWL2Glaz_NCDGq-19" target="WxUwz7fWL2Glaz_NCDGq-21">
          <mxGeometry relative="1" as="geometry" />
        </mxCell>
        <mxCell id="WxUwz7fWL2Glaz_NCDGq-23" style="edgeStyle=orthogonalEdgeStyle;rounded=0;orthogonalLoop=1;jettySize=auto;html=1;entryX=0.888;entryY=1.007;entryDx=0;entryDy=0;entryPerimeter=0;curved=1;" edge="1" parent="WIyWlLk6GJQsqaUBKTNV-1" source="WxUwz7fWL2Glaz_NCDGq-21" target="WxUwz7fWL2Glaz_NCDGq-10">
          <mxGeometry relative="1" as="geometry" />
        </mxCell>
      </root>
    </mxGraphModel>
  </diagram>
</mxfile>
